<svg width="16" height="11" viewBox="0 0 16 11" fill="none" xmlns="http://www.w3.org/2000/svg">
<g clip-path="url(#clip0)">
<path d="M15.0741 1.28906L11.1441 5.28906C11.1309 5.30236 11.1235 5.32033 11.1235 5.33906C11.1235 5.35779 11.1309 5.37577 11.1441 5.38906L13.8941 8.31805C13.9384 8.36209 13.9735 8.41446 13.9975 8.47212C14.0215 8.52978 14.0338 8.59162 14.0338 8.65406C14.0338 8.71651 14.0215 8.77833 13.9975 8.83599C13.9735 8.89366 13.9384 8.94602 13.8941 8.99006C13.8049 9.07897 13.6841 9.12889 13.5581 9.12889C13.4322 9.12889 13.3114 9.07897 13.2221 8.99006L10.4821 6.08206C10.4681 6.06801 10.449 6.06013 10.4291 6.06013C10.4093 6.06013 10.3902 6.06801 10.3761 6.08206L9.70813 6.76106C9.43449 7.04068 9.10781 7.26289 8.74721 7.41468C8.38662 7.56648 7.99937 7.6448 7.60813 7.64506C7.20882 7.64344 6.81384 7.56211 6.44637 7.40585C6.0789 7.24959 5.74632 7.02153 5.46813 6.73506L4.82513 6.08105C4.81107 6.067 4.79201 6.05912 4.77213 6.05912C4.75226 6.05912 4.73319 6.067 4.71913 6.08105L1.98013 8.99906C1.89091 9.08798 1.77009 9.13789 1.64413 9.13789C1.51817 9.13789 1.39735 9.08798 1.30813 8.99906C1.26387 8.95502 1.22874 8.90266 1.20477 8.845C1.1808 8.78733 1.16847 8.7255 1.16847 8.66305C1.16847 8.60061 1.1808 8.53878 1.20477 8.48112C1.22874 8.42346 1.26387 8.3711 1.30813 8.32705L4.05813 5.39805C4.06985 5.38402 4.07627 5.36634 4.07627 5.34806C4.07627 5.32979 4.06985 5.31209 4.05813 5.29806L0.124129 1.29806C0.114118 1.2876 0.101187 1.2804 0.0870234 1.2774C0.0728597 1.2744 0.0581228 1.27575 0.0447337 1.28126C0.0313447 1.28677 0.019926 1.29617 0.0119693 1.30827C0.00401255 1.32036 -0.000111243 1.33458 0.000132265 1.34906V9.35905C0.000924245 9.66884 0.124339 9.96574 0.343398 10.1848C0.562456 10.4039 0.859336 10.5273 1.16913 10.5281H14.0291C14.3389 10.5273 14.6358 10.4039 14.8549 10.1848C15.0739 9.96574 15.1973 9.66884 15.1981 9.35905V1.34906C15.1998 1.33403 15.1968 1.31884 15.1895 1.3056C15.1822 1.29235 15.171 1.2817 15.1574 1.27511C15.1438 1.26852 15.1285 1.26633 15.1135 1.26882C15.0986 1.27132 15.0849 1.2784 15.0741 1.28906Z" fill="black"/>
<path d="M7.60007 6.68803C7.86615 6.68878 8.12967 6.63605 8.37498 6.53298C8.62028 6.42991 8.84238 6.2786 9.02807 6.08802L14.7591 0.255025C14.5545 0.0893273 14.2993 -0.00104969 14.0361 -0.000972145H1.16807C0.904738 -0.00170495 0.649267 0.0887475 0.445068 0.255025L6.17607 6.08802C6.36129 6.27811 6.58274 6.42915 6.82732 6.5322C7.07191 6.63525 7.33466 6.68825 7.60007 6.68803Z" fill="black"/>
</g>
<defs>
<clipPath id="clip0">
<rect width="15.195" height="10.52" fill="white" transform="translate(0.00317383)"/>
</clipPath>
</defs>
</svg>
