<svg width="16" height="11" viewBox="0 0 16 11" fill="none" xmlns="http://www.w3.org/2000/svg">
<path d="M15.074 1.57761L11.144 5.57372C11.1308 5.587 11.1234 5.60496 11.1234 5.62367C11.1234 5.64238 11.1308 5.66034 11.144 5.67363L13.894 8.59976C13.9383 8.64376 13.9734 8.69607 13.9974 8.75368C14.0213 8.81129 14.0337 8.87306 14.0337 8.93545C14.0337 8.99783 14.0213 9.0596 13.9974 9.1172C13.9734 9.17481 13.9383 9.22712 13.894 9.27112C13.8048 9.35994 13.684 9.40981 13.558 9.40981C13.4321 9.40981 13.3112 9.35994 13.222 9.27112L10.482 6.36595C10.468 6.35191 10.4489 6.34404 10.429 6.34404C10.4091 6.34404 10.3901 6.35191 10.376 6.36595L9.70802 7.04429C9.43438 7.32364 9.10769 7.54563 8.7471 7.69727C8.38651 7.84892 7.99925 7.92717 7.60801 7.92743C7.2087 7.9258 6.81373 7.84456 6.44625 7.68845C6.07878 7.53234 5.7462 7.3045 5.46801 7.01831L4.82501 6.36494C4.81095 6.35091 4.79189 6.34303 4.77201 6.34303C4.75214 6.34303 4.73307 6.35091 4.71901 6.36494L1.98001 9.28011C1.89079 9.36894 1.76997 9.4188 1.64401 9.4188C1.51805 9.4188 1.39723 9.36894 1.30801 9.28011C1.26375 9.23611 1.22862 9.1838 1.20465 9.1262C1.18068 9.06859 1.16835 9.00681 1.16835 8.94443C1.16835 8.88204 1.18068 8.82028 1.20465 8.76267C1.22862 8.70507 1.26375 8.65276 1.30801 8.60876L4.05801 5.68261C4.06973 5.66859 4.07615 5.65092 4.07615 5.63267C4.07615 5.61441 4.06973 5.59673 4.05801 5.58271L0.124007 1.5866C0.113996 1.57616 0.101065 1.56896 0.0869014 1.56596C0.0727377 1.56297 0.0580007 1.56432 0.0446117 1.56982C0.0312226 1.57532 0.0198039 1.58472 0.0118472 1.5968C0.00389048 1.60889 -0.000233313 1.62309 1.01946e-05 1.63755V9.63975C0.000802175 9.94924 0.124217 10.2458 0.343276 10.4647C0.562335 10.6835 0.859215 10.8068 1.16901 10.8076H14.029C14.3388 10.8068 14.6357 10.6835 14.8548 10.4647C15.0738 10.2458 15.1972 9.94924 15.198 9.63975V1.63755C15.1997 1.62254 15.1967 1.60737 15.1894 1.59414C15.1821 1.5809 15.1709 1.57026 15.1573 1.56368C15.1437 1.5571 15.1283 1.5549 15.1134 1.5574C15.0985 1.55989 15.0847 1.56696 15.074 1.57761Z" fill="black"/>
<path d="M7.6 6.97118C7.86608 6.97193 8.1296 6.91925 8.37491 6.81629C8.62022 6.71332 8.84231 6.56215 9.028 6.37177L14.759 0.544565C14.5545 0.379033 14.2992 0.288745 14.036 0.288823H1.16801C0.904676 0.288091 0.649206 0.378453 0.445007 0.544565L6.17601 6.37177C6.36123 6.56167 6.58268 6.71256 6.82726 6.81551C7.07184 6.91846 7.3346 6.9714 7.6 6.97118Z" fill="black"/>
</svg>
