<?xml version="1.0" standalone="no"?>
<!DOCTYPE svg PUBLIC "-//W3C//DTD SVG 20010904//EN"
 "http://www.w3.org/TR/2001/REC-SVG-20010904/DTD/svg10.dtd">
<svg version="1.0" xmlns="http://www.w3.org/2000/svg"
 width="260.000000pt" height="260.000000pt" viewBox="0 0 260.000000 260.000000"
 preserveAspectRatio="xMidYMid meet">
<metadata>
Created by potrace 1.11, written by Peter Selinger 2001-2013
</metadata>
<g transform="translate(0.000000,260.000000) scale(0.100000,-0.100000)"
fill="#000000" stroke="none">
<path d="M192 2579 c-73 -28 -143 -99 -170 -172 -22 -57 -22 -59 -22 -1107 0
-1011 1 -1052 19 -1101 28 -73 82 -133 149 -166 l57 -28 1075 0 1075 0 50 23
c64 29 129 101 155 169 19 52 20 77 19 1106 0 1018 -1 1054 -20 1103 -27 70
-76 124 -145 159 l-59 30 -1065 2 c-1047 2 -1066 2 -1118 -18z"/>
</g>
</svg>
